<?xml version="1.0" encoding="UTF-8"?>
<svg id="Layer_1" xmlns="http://www.w3.org/2000/svg" viewBox="0 0 595.2755737305 113.2092856255">
  <defs>
    <style>
      .cls-1 {
        fill: #2b5992;
        stroke: #d5eaf9;
      }

      .cls-1, .cls-2 {
        stroke-miterlimit: 10;
      }

      .cls-2 {
        fill: #d6ebf9;
        stroke: #477baf;
      }
    </style>
  </defs>
  <path class="cls-1" d="M34.442736609,31.6739530353c4.9727661975-.0204332055,9.9455323949-.0408155822,14.9182985924-.0612487877.0002541444,10.3445390199.0005082887,20.689027211.000762433,31.0335662309-.117973806.6607753026-.9280589125,5.6459183298,2.3663380164,9.1428428889,2.4262652534,2.5753971563,5.8351287962,3.0234536403,7.3001184709,3.2159933977,1.5401147437.2024513869,2.846289616.1180754637,3.7563805231,0,4.0568807992.0507780406,8.1137615984.1015052523,12.1706423975.1522832928.9706789195.2856074173,4.7455357367,1.5191224207,7.2748819373,5.437926596,2.5307185801,3.9209389879,2.0984190456,7.8712062334,1.9586904835,8.8728399344h-34.8704596832c-2.6570283206-.4948698728-5.8591708515-1.5438760801-8.930225728-3.7166577616-1.5667744858-1.1084759845-3.2528189137-2.3293345994-4.5359937224-4.6068745809-1.5349810279-2.7244782304-1.6094453217-5.3920789558-1.5493910124-6.733097018.0466609021-14.2458580642.0932963898-28.4917161284.139957292-42.7375741926Z"/>
  <path class="cls-1" d="M145.6177531831,60.5400237871c0,7.9797258697-2.8268984023,14.7964872068-8.479068683,20.4486574875-5.6537968045,5.6537968045-12.4697448797,8.479068683-20.4486574875,8.479068683-7.9797258697,0-14.7956739448-2.8252718784-20.4486574874-8.479068683-5.6529835426-5.6521702807-8.479068683-12.4689316178-8.479068683-20.4486574875,0-7.9789126078,2.8260851403-14.7948606829,8.479068683-20.4486574875,5.6529835426-5.6521702807,12.4689316178-8.479068683,20.4486574874-8.479068683,7.9789126078,0,14.7948606829,2.8268984023,20.4486574875,8.479068683,5.6521702807,5.6537968045,8.479068683,12.4697448797,8.479068683,20.4486574875ZM116.6900270127,46.0761607019c-4.0020618635,0-7.4128823178,1.4101961535-10.2332746247,4.2305884605-2.820392307,2.820392307-4.2305884605,6.2320260232-4.2305884605,10.2332746247,0,4.0020618635,1.4101961535,7.4136955797,4.2305884605,10.2340878867s6.2312127613,4.2305884605,10.2332746247,4.2305884605c4.0012486016,0,7.4128823178-1.4101961535,10.2332746248-4.2305884605s4.2305884605-6.2320260232,4.2305884605-10.2340878867c0-4.0012486016-1.4101961535-7.4128823178-4.2305884605-10.2332746247-2.820392307-2.820392307-6.2320260232-4.2305884605-10.2332746248-4.2305884605Z"/>
  <path class="cls-1" d="M207.8672106142,60.540430418v28.9277261704h-28.9277261704c-7.9797258697,0-14.7956739448-2.8252718784-20.4486574874-8.479068683-5.6529835426-5.6521702807-8.4790686829-12.4689316178-8.4790686829-20.4486574875,0-7.9789126078,2.8260851403-14.7948606829,8.4790686829-20.4486574875,5.6529835426-5.6521702807,12.4689316178-8.479068683,20.4486574874-8.479068683h28.9277261704v14.4638630852h-28.9277261704c-4.0020618635,0-7.4128823178,1.4101961535-10.2332746247,4.2305884605-2.820392307,2.820392307-4.2305884605,6.2320260232-4.2305884605,10.2332746247,0,4.0020618635,1.4101961535,7.4136955797,4.2305884605,10.2340878867,2.820392307,2.820392307,6.2312127612,4.2305884605,10.2332746247,4.2305884605,5.0894438672.0147403721,10.1789131489.0295315731,15.2683570161.0442719453.1489285874-1.4909123981.7368915346-5.3537539883,3.7563805231-8.930225728,3.7127185243-4.3976121254,8.5663418518-5.3593451639,9.9029886312-5.5787225644Z"/>
  <path class="cls-1" d="M223.1839377884,34.5754217149c3.4756272628,2.9065980695,4.2982925145,6.6998549374,4.4948985815,7.7884060051v47.1039265634h-14.4638630852V31.6123019425c.8763405379-.0970831406,5.7647053976-.5528147839,9.9689645037,2.9631197723Z"/>
  <path class="cls-1" d="M246.9740170199,60.5400237871v28.9277261704h-14.4638630852v-28.9277261704c0-7.9789126078,2.8260851403-14.7948606829,8.4790686829-20.4486574875,5.6529835426-5.6521702807,12.4689316178-8.479068683,20.4486574874-8.479068683,7.9789126078,0,14.7948606829,2.8268984023,20.4486574875,8.479068683,5.6529835426,5.6537968045,8.4798819449,12.4697448797,8.4798819449,20.4486574875v28.9277261704h-14.4646763471v-28.9277261704c0-4.0012486016-1.4101961535-7.4128823178-4.2305884605-10.2332746247s-6.2320260232-4.2305884605-10.2332746248-4.2305884605c-4.0020618635,0-7.4128823178,1.4101961535-10.2332746247,4.2305884605s-4.2305884605,6.2320260232-4.2305884605,10.2332746247Z"/>
  <path class="cls-1" d="M353.1331523484,60.5400237871c0,7.9797258697-2.8268984023,14.7964872068-8.479068683,20.4486574875-5.6537968045,5.6537968045-12.4705581416,8.479068683-20.4486574874,8.479068683-7.9797258697,0-14.7964872068-2.8252718784-20.4486574875-8.479068683-5.6537968045-5.6521702807-8.479068683-12.4689316178-8.479068683-20.4486574875,0-7.9789126078,2.8252718784-14.7948606829,8.479068683-20.4486574875,5.6521702807-5.6521702807,12.4689316178-8.479068683,20.4486574875-8.479068683,7.9780993458,0,14.7948606829,2.8268984023,20.4486574874,8.479068683,5.6521702807,5.6537968045,8.479068683,12.4697448797,8.479068683,20.4486574875ZM324.205426178,46.0761607019c-4.0028751254,0-7.4136955797,1.4101961535-10.2340878867,4.2305884605s-4.2305884605,6.2320260232-4.2305884605,10.2332746247c0,4.0020618635,1.4101961535,7.4136955797,4.2305884605,10.2340878867,2.820392307,2.820392307,6.2312127612,4.2305884605,10.2340878867,4.2305884605,4.0012486016,0,7.4120690559-1.4101961535,10.2324613628-4.2305884605,2.820392307-2.820392307,4.2305884605-6.2320260232,4.2305884605-10.2340878867,0-4.0012486016-1.4101961535-7.4128823178-4.2305884605-10.2332746247s-6.2312127612-4.2305884605-10.2324613628-4.2305884605Z"/>
  <path class="cls-1" d="M415.5170876829,31.6123019425v28.9277261704c0,7.9797258697-2.8268984023,14.7964872068-8.479068683,20.4486574875-5.6537968045,5.6537968045-12.4689316178,8.479068683-20.4486574874,8.479068683h-28.9277261704V31.6123019425h14.4646763471v43.3924025175h14.4630498233c4.0012486016,0,7.4136955797-1.4101961535,10.2340878866-4.2305884605,1.3936767709-1.3936767709,2.4429879515-2.931707531,3.1479843705-4.6139906226.991518756-2.3660330431,1.0565797089-4.4276011584,1.08260409-5.6200972641.1785618183-8.1806015617.0279558782-16.7487732527,0-18.2706912612.2721885958-1.177196616,1.2641648116-4.7806076566,4.6823046231-7.5827015705,4.1030079982-3.3634987768,8.7442428948-3.1479335416,9.7807452002-3.0743333386Z"/>
  <path class="cls-1" d="M478.5874598207,60.5400237871v28.9277261704h-14.4646763471v-14.4630498233h-28.9277261704v14.4630498233h-14.4630498233v-28.9277261704c0-7.9789126078,2.8252718784-14.7948606829,8.479068683-20.4486574875,5.6521702807-5.6521702807,12.4689316178-8.479068683,20.4486574875-8.479068683,7.9780993458,0,14.7948606829,2.8268984023,20.4486574874,8.479068683,5.6521702807,5.6537968045,8.479068683,12.4697448797,8.479068683,20.4486574875ZM464.1227834736,60.5400237871c0-4.0012486016-1.4101961535-7.4128823178-4.2305884605-10.2332746247-2.820392307-2.820392307-6.2312127613-4.2305884605-10.2324613628-4.2305884605-4.0028751254,0-7.4136955797,1.4101961535-10.2340878867,4.2305884605-2.820392307,2.820392307-4.2305884605,6.2320260232-4.2305884605,10.2332746247h28.9277261704Z"/>
  <path class="cls-2" d="M555.9943975781,34.9337652444c3.589229786,3.069504596,4.4465094978,6.9919176212,4.6549586913,8.1421241075v46.3918649315h-14.4646763471V31.6123019425c1.0333509155-.0514896447,5.7239914732-.1726656695,9.8097176558,3.3214633018Z"/>
  <path class="cls-2" d="M532.5006713865,40.0917320327c-5.654296875-5.6521606445-12.470703125-8.4790649414-20.4487304688-8.4790649414-7.9799804688,0-14.794921875,2.8269042969-20.4487304688,8.4790649414-5.65234375,5.6538085938-8.4790039062,12.4697265625-8.4790039062,20.4486694336v28.927734375h14.4643554688v-14.4630737305h28.927734375v14.4630737305h14.4633789062v-28.927734375c0-7.9789428711-2.8271484375-14.7948608398-8.4790039062-20.4486694336ZM517.4415893552,56.3900718764l1.4599609375,3.4604492188-3.5146484375-1.5139770508-3.080078125,11.7872314453-3.4624023438-12.0034790039-3.3520507812,1.7302246094,1.7299804688-3.4604492188-11.625-3.08203125,11.625-3.0819702148-1.7299804688-3.4604492188,3.3520507812,1.7302246094,3.4624023438-12.0034790039,3.080078125,11.7872314453,3.5146484375-1.5139770508-1.4599609375,3.4604492188,11.7329101562,3.0819702148-11.7329101562,3.08203125Z"/>
</svg>